<svg preserveAspectRatio="none" width="100%" height="100%" overflow="visible" style="display: block;" viewBox="0 0 30.6452 30.6452" fill="none" xmlns="http://www.w3.org/2000/svg">
<g id="Group 19">
<circle id="Ellipse 2" cx="15.3226" cy="15.3226" r="14.8226" stroke="var(--stroke-0, #C8C8C8)"/>
<path id="?" d="M13.9067 19.3094C13.92 18.4472 14.0097 17.7662 14.1758 17.2662C14.3418 16.7663 14.6806 16.212 15.192 15.6034L16.4972 14.1363C17.0552 13.448 17.3342 12.7089 17.3342 11.9192C17.3342 11.1584 17.1515 10.5643 16.7862 10.1369C16.4208 9.70214 15.8895 9.48478 15.192 9.48478C14.5145 9.48478 13.9698 9.6804 13.558 10.0716C13.1462 10.4629 12.9403 10.9882 12.9403 11.6475H11.0971C11.1103 10.4738 11.4923 9.52825 12.2429 8.81097C13.0001 8.08644 13.9831 7.72417 15.192 7.72417C16.4474 7.72417 17.4238 8.09368 18.1213 8.8327C18.8253 9.56448 19.1774 10.5716 19.1774 11.854C19.1774 13.1219 18.6394 14.3717 17.5633 15.6034L16.4773 16.7772C15.9924 17.364 15.75 18.2081 15.75 19.3094H13.9067ZM13.827 22.7546C13.827 22.4285 13.9167 22.1568 14.096 21.9395C14.282 21.7149 14.5544 21.6026 14.913 21.6026C15.2717 21.6026 15.5441 21.7149 15.73 21.9395C15.916 22.1568 16.009 22.4285 16.009 22.7546C16.009 23.0806 15.916 23.3523 15.73 23.5697C15.5441 23.7798 15.2717 23.8848 14.913 23.8848C14.5544 23.8848 14.282 23.7798 14.096 23.5697C13.9167 23.3523 13.827 23.0806 13.827 22.7546Z" fill="var(--fill-0, #747171)"/>
</g>
</svg>
